<?xml version="1.0" encoding="utf-8"?>
<!-- Generator: Adobe Illustrator 23.0.3, SVG Export Plug-In . SVG Version: 6.00 Build 0)  -->
<svg version="1.1" id="Layer_1" xmlns="http://www.w3.org/2000/svg" xmlns:xlink="http://www.w3.org/1999/xlink" x="0px" y="0px"
	 viewBox="0 0 250 60" style="enable-background:new 0 0 250 60;" xml:space="preserve">
<style type="text/css">
	.st0{fill:#FFFFFF;}
	.st1{fill:#00FFE8;}
</style>
<g>
	<g>
		<g>
			<path class="st0" d="M60,34.8c0.5,0,1,0,1.3-0.1c0.4-0.1,0.6-0.2,0.8-0.4c0.2-0.2,0.4-0.3,0.4-0.5c0.1-0.2,0.1-0.4,0.1-0.7
				c0-0.6-0.3-1-0.8-1.4c-0.5-0.4-1.4-0.8-2.7-1.2c-0.5-0.2-1.1-0.4-1.7-0.7c-0.5-0.3-1.1-0.6-1.5-1c-0.4-0.4-0.8-0.8-1.1-1.4
				c-0.3-0.5-0.4-1.2-0.4-2s0.2-1.5,0.4-2.1c0.3-0.6,0.7-1.2,1.2-1.6c0.5-0.4,1.2-0.8,2-1c0.8-0.2,1.6-0.4,2.6-0.4
				c1.1,0,2.1,0.1,3,0.4c0.8,0.2,1.5,0.5,2.1,0.8l-1.1,3c-0.5-0.2-1-0.5-1.6-0.6c-0.6-0.2-1.3-0.3-2.1-0.3c-0.9,0-1.6,0.1-2,0.4
				s-0.6,0.6-0.6,1.2c0,0.3,0.1,0.6,0.2,0.8c0.2,0.2,0.4,0.4,0.6,0.6c0.3,0.2,0.6,0.3,0.9,0.5c0.4,0.1,0.7,0.3,1.2,0.4
				c0.9,0.3,1.6,0.6,2.3,1c0.7,0.3,1.2,0.7,1.6,1.1c0.4,0.4,0.8,0.9,1,1.5c0.2,0.6,0.3,1.3,0.3,2.1c0,1.6-0.6,2.8-1.7,3.7
				c-1.1,0.9-2.8,1.3-5,1.3c-0.7,0-1.4,0-2-0.1c-0.6-0.1-1.1-0.2-1.6-0.3c-0.5-0.1-0.9-0.3-1.2-0.4c-0.3-0.1-0.6-0.3-0.8-0.4l1.1-3
				c0.5,0.3,1.1,0.5,1.9,0.7C58,34.7,58.9,34.8,60,34.8z"/>
			<path class="st0" d="M81.4,31.3c0,1-0.1,1.9-0.4,2.8c-0.3,0.8-0.7,1.6-1.3,2.2c-0.6,0.6-1.2,1.1-2,1.4c-0.8,0.3-1.6,0.5-2.6,0.5
				c-0.9,0-1.8-0.2-2.6-0.5s-1.4-0.8-2-1.4c-0.6-0.6-1-1.3-1.3-2.2c-0.3-0.8-0.5-1.8-0.5-2.8c0-1,0.2-1.9,0.5-2.8
				c0.3-0.8,0.8-1.5,1.3-2.1c0.6-0.6,1.2-1,2-1.4c0.8-0.3,1.6-0.5,2.5-0.5c0.9,0,1.8,0.2,2.6,0.5c0.8,0.3,1.4,0.8,2,1.4
				c0.5,0.6,1,1.3,1.3,2.1C81.2,29.3,81.4,30.3,81.4,31.3z M77.7,31.3c0-1.1-0.2-2-0.7-2.6c-0.4-0.6-1.1-1-1.9-1s-1.5,0.3-1.9,1
				c-0.5,0.6-0.7,1.5-0.7,2.6c0,1.1,0.2,2,0.7,2.7c0.5,0.7,1.1,1,1.9,1s1.5-0.3,1.9-1C77.5,33.3,77.7,32.4,77.7,31.3z"/>
			<path class="st0" d="M89.8,18.8c0.7,0,1.3,0.1,1.9,0.2c0.6,0.1,1,0.3,1.3,0.4l-0.7,2.9c-0.3-0.1-0.7-0.3-1.1-0.3
				c-0.4-0.1-0.7-0.1-1.1-0.1c-0.4,0-0.8,0.1-1.1,0.2c-0.3,0.1-0.5,0.3-0.7,0.5C88.2,22.7,88,23,88,23.3c-0.1,0.3-0.1,0.6-0.1,1v0.6
				h4.5v3h-4.5v9.8h-3.6V24.2c0-1.7,0.5-3,1.4-4C86.5,19.2,87.9,18.8,89.8,18.8z"/>
			<path class="st0" d="M94.4,21.7l3.6-0.6v3.8h4.4v3H98v4.5c0,0.8,0.1,1.4,0.4,1.8c0.3,0.5,0.8,0.7,1.6,0.7c0.4,0,0.8,0,1.2-0.1
				c0.4-0.1,0.8-0.2,1.1-0.3l0.5,2.8c-0.4,0.2-0.9,0.3-1.5,0.5c-0.5,0.1-1.2,0.2-2,0.2c-1,0-1.8-0.1-2.5-0.4
				c-0.7-0.3-1.2-0.6-1.6-1.1c-0.4-0.5-0.7-1.1-0.8-1.7c-0.2-0.7-0.2-1.4-0.2-2.3V21.7z"/>
			<path class="st0" d="M113.5,30.3c-0.3,1.2-0.7,2.5-1,3.7c-0.4,1.2-0.8,2.5-1.2,3.7h-2.8c-0.3-0.7-0.6-1.5-1-2.4
				c-0.3-0.9-0.7-2-1.1-3.1c-0.4-1.1-0.7-2.3-1.1-3.5c-0.4-1.2-0.7-2.5-1.1-3.8h3.8c0.1,0.6,0.3,1.2,0.4,1.9
				c0.2,0.7,0.3,1.4,0.5,2.1c0.2,0.7,0.4,1.5,0.5,2.2c0.2,0.7,0.4,1.5,0.6,2.1c0.2-0.7,0.4-1.4,0.6-2.2c0.2-0.7,0.4-1.5,0.6-2.2
				c0.2-0.7,0.4-1.4,0.5-2.1c0.2-0.7,0.3-1.3,0.5-1.9h2.6c0.1,0.6,0.3,1.2,0.4,1.9c0.2,0.7,0.3,1.4,0.5,2.1c0.2,0.7,0.4,1.5,0.6,2.2
				c0.2,0.7,0.4,1.5,0.6,2.2c0.2-0.7,0.4-1.4,0.6-2.1c0.2-0.7,0.4-1.5,0.6-2.2c0.2-0.7,0.3-1.4,0.5-2.1c0.2-0.7,0.3-1.3,0.4-1.9h3.8
				c-0.4,1.3-0.7,2.5-1.1,3.8c-0.4,1.2-0.8,2.4-1.1,3.5c-0.4,1.1-0.7,2.1-1.1,3.1c-0.4,0.9-0.7,1.8-1,2.4h-2.8
				c-0.4-1.2-0.8-2.5-1.2-3.7C114.1,32.8,113.8,31.6,113.5,30.3z"/>
			<path class="st0" d="M129.2,24.5c1.1,0,2,0.1,2.7,0.4c0.7,0.2,1.3,0.6,1.7,1.1c0.4,0.5,0.7,1,0.9,1.7c0.2,0.6,0.3,1.4,0.3,2.2
				v7.6c-0.5,0.1-1.3,0.2-2.2,0.4c-0.9,0.2-2.1,0.2-3.4,0.2c-0.8,0-1.6-0.1-2.3-0.2c-0.7-0.1-1.3-0.4-1.8-0.7
				c-0.5-0.3-0.9-0.8-1.1-1.3c-0.3-0.5-0.4-1.2-0.4-2c0-0.7,0.2-1.4,0.5-1.9c0.3-0.5,0.7-0.9,1.2-1.2c0.5-0.3,1.1-0.5,1.7-0.7
				c0.7-0.1,1.3-0.2,2-0.2c0.5,0,0.9,0,1.3,0.1c0.4,0,0.7,0.1,0.9,0.2v-0.3c0-0.6-0.2-1.1-0.6-1.5c-0.4-0.4-1-0.6-2-0.6
				c-0.6,0-1.2,0-1.8,0.1c-0.6,0.1-1.1,0.2-1.6,0.4l-0.5-2.9c0.2-0.1,0.5-0.1,0.8-0.2c0.3-0.1,0.7-0.1,1-0.2
				c0.4-0.1,0.8-0.1,1.2-0.1C128.3,24.5,128.7,24.5,129.2,24.5z M129.4,35.2c0.4,0,0.7,0,1,0c0.3,0,0.6,0,0.8-0.1v-2.8
				c-0.2,0-0.4-0.1-0.7-0.1c-0.3,0-0.6,0-0.8,0c-0.3,0-0.7,0-1,0.1c-0.3,0-0.6,0.1-0.8,0.2c-0.2,0.1-0.4,0.3-0.5,0.5
				c-0.1,0.2-0.2,0.4-0.2,0.7c0,0.6,0.2,1,0.6,1.2C128.3,35.1,128.8,35.2,129.4,35.2z"/>
			<path class="st0" d="M145.8,28.1c-0.3-0.1-0.7-0.2-1.1-0.3c-0.4-0.1-0.9-0.1-1.4-0.1c-0.2,0-0.5,0-0.8,0.1
				c-0.3,0-0.6,0.1-0.7,0.1v9.8h-3.6V25.5c0.6-0.2,1.4-0.4,2.3-0.6c0.9-0.2,1.9-0.3,3-0.3c0.2,0,0.4,0,0.7,0c0.3,0,0.6,0.1,0.8,0.1
				c0.3,0,0.6,0.1,0.8,0.1s0.5,0.1,0.7,0.2L145.8,28.1z"/>
			<path class="st0" d="M147.5,31.4c0-1.1,0.2-2.1,0.5-3c0.3-0.9,0.8-1.6,1.4-2.1c0.6-0.6,1.2-1,2-1.3c0.7-0.3,1.5-0.4,2.3-0.4
				c1.8,0,3.3,0.6,4.3,1.7c1.1,1.1,1.6,2.8,1.6,4.9c0,0.2,0,0.4,0,0.7c0,0.3,0,0.5-0.1,0.7h-8.3c0.1,0.7,0.4,1.3,1.1,1.8
				c0.6,0.4,1.4,0.7,2.5,0.7c0.7,0,1.3-0.1,2-0.2c0.6-0.1,1.2-0.3,1.6-0.5l0.5,3c-0.2,0.1-0.5,0.2-0.8,0.3c-0.3,0.1-0.7,0.2-1.1,0.3
				c-0.4,0.1-0.8,0.1-1.3,0.2c-0.5,0-0.9,0.1-1.4,0.1c-1.2,0-2.2-0.2-3-0.5c-0.9-0.3-1.6-0.8-2.1-1.4c-0.6-0.6-1-1.3-1.2-2.1
				C147.6,33.2,147.5,32.3,147.5,31.4z M156.1,30c0-0.3-0.1-0.6-0.2-0.9s-0.2-0.6-0.4-0.8c-0.2-0.2-0.4-0.4-0.7-0.6
				c-0.3-0.1-0.6-0.2-1.1-0.2c-0.4,0-0.8,0.1-1.1,0.2c-0.3,0.1-0.5,0.3-0.7,0.5c-0.2,0.2-0.4,0.5-0.5,0.8c-0.1,0.3-0.2,0.6-0.2,0.9
				H156.1z"/>
			<path class="st0" d="M167.6,18.8c0.7,0,1.2,0.1,1.7,0.1c0.5,0.1,0.8,0.2,1,0.3l-0.4,2c-0.2-0.1-0.5-0.2-0.8-0.3
				c-0.4-0.1-0.8-0.1-1.3-0.1c-1.1,0-1.8,0.3-2.2,0.9c-0.4,0.6-0.6,1.4-0.6,2.3V25h4.9v1.9h-4.9v10.8h-2.3V23.9
				c0-1.6,0.4-2.9,1.2-3.8C164.6,19.2,165.9,18.8,167.6,18.8z"/>
			<path class="st0" d="M183.3,31.4c0,1-0.1,1.9-0.4,2.7c-0.3,0.8-0.7,1.5-1.2,2.1c-0.5,0.6-1.2,1-1.9,1.4c-0.7,0.3-1.5,0.5-2.4,0.5
				s-1.7-0.2-2.4-0.5c-0.7-0.3-1.4-0.8-1.9-1.4c-0.5-0.6-0.9-1.3-1.2-2.1s-0.4-1.7-0.4-2.7c0-1,0.1-1.9,0.4-2.7
				c0.3-0.8,0.7-1.5,1.2-2.1c0.5-0.6,1.2-1,1.9-1.4s1.5-0.5,2.4-0.5s1.7,0.2,2.4,0.5c0.7,0.3,1.4,0.8,1.9,1.4
				c0.5,0.6,0.9,1.3,1.2,2.1C183.1,29.5,183.3,30.4,183.3,31.4z M180.9,31.4c0-1.4-0.3-2.6-1-3.4c-0.6-0.8-1.5-1.3-2.6-1.3
				c-1.1,0-2,0.4-2.6,1.3c-0.6,0.8-1,2-1,3.4c0,1.4,0.3,2.6,1,3.4c0.6,0.8,1.5,1.3,2.6,1.3c1.1,0,2-0.4,2.6-1.3
				C180.6,33.9,180.9,32.8,180.9,31.4z"/>
			<path class="st0" d="M191.2,24.7c0.2,0,0.4,0,0.7,0c0.3,0,0.5,0.1,0.7,0.1c0.2,0,0.5,0.1,0.7,0.1c0.2,0,0.4,0.1,0.5,0.1l-0.4,2
				c-0.2-0.1-0.5-0.1-0.9-0.2c-0.4-0.1-0.9-0.1-1.6-0.1c-0.4,0-0.8,0-1.3,0.1c-0.4,0.1-0.7,0.2-0.8,0.2v10.7h-2.3V25.5
				c0.5-0.2,1.2-0.4,2-0.5S190.2,24.7,191.2,24.7z"/>
			<path class="st0" d="M195.9,25.4c0.5-0.1,1.2-0.3,2.1-0.4c0.9-0.1,1.8-0.2,3-0.2c0.8,0,1.5,0.1,2,0.3c0.6,0.2,1,0.5,1.4,1
				c0.1-0.1,0.3-0.2,0.5-0.3c0.2-0.1,0.5-0.3,0.9-0.4c0.4-0.1,0.8-0.3,1.2-0.4c0.4-0.1,0.9-0.2,1.4-0.2c1,0,1.8,0.1,2.4,0.4
				s1.1,0.7,1.5,1.2c0.4,0.5,0.6,1.1,0.7,1.9c0.1,0.7,0.2,1.5,0.2,2.3v7.1h-2.3v-6.6c0-0.7,0-1.4-0.1-1.9c-0.1-0.5-0.2-1-0.4-1.3
				c-0.2-0.4-0.5-0.6-0.8-0.8c-0.4-0.2-0.8-0.3-1.4-0.3c-0.8,0-1.4,0.1-1.9,0.3c-0.5,0.2-0.8,0.4-1,0.6c0.1,0.4,0.2,0.9,0.3,1.4
				c0.1,0.5,0.1,1,0.1,1.6v7.1h-2.3v-6.6c0-0.7,0-1.4-0.1-1.9c-0.1-0.5-0.2-1-0.4-1.3c-0.2-0.4-0.5-0.6-0.8-0.8
				c-0.4-0.2-0.8-0.3-1.3-0.3c-0.2,0-0.5,0-0.7,0c-0.3,0-0.5,0-0.7,0.1c-0.2,0-0.5,0.1-0.7,0.1c-0.2,0-0.3,0.1-0.4,0.1v10.7h-2.3
				V25.4z"/>
			<path class="st0" d="M220.8,38c-1.4,0-2.4-0.3-3-0.9c-0.6-0.6-0.9-1.5-0.9-2.7V19.1l2.3-0.4V34c0,0.4,0,0.7,0.1,0.9
				c0.1,0.2,0.2,0.4,0.3,0.6c0.1,0.1,0.3,0.3,0.6,0.3c0.2,0.1,0.5,0.1,0.9,0.2L220.8,38z"/>
			<path class="st0" d="M223.6,25.4c0.5-0.1,1.2-0.3,2.1-0.4c0.9-0.1,1.8-0.2,3-0.2c0.8,0,1.5,0.1,2,0.3c0.6,0.2,1,0.5,1.4,1
				c0.1-0.1,0.3-0.2,0.5-0.3c0.2-0.1,0.5-0.3,0.9-0.4c0.4-0.1,0.8-0.3,1.2-0.4c0.4-0.1,0.9-0.2,1.4-0.2c1,0,1.8,0.1,2.4,0.4
				s1.1,0.7,1.5,1.2c0.4,0.5,0.6,1.1,0.7,1.9c0.1,0.7,0.2,1.5,0.2,2.3v7.1h-2.3v-6.6c0-0.7,0-1.4-0.1-1.9c-0.1-0.5-0.2-1-0.4-1.3
				c-0.2-0.4-0.5-0.6-0.8-0.8c-0.4-0.2-0.8-0.3-1.4-0.3c-0.8,0-1.4,0.1-1.9,0.3c-0.5,0.2-0.8,0.4-1,0.6c0.1,0.4,0.2,0.9,0.3,1.4
				c0.1,0.5,0.1,1,0.1,1.6v7.1h-2.3v-6.6c0-0.7,0-1.4-0.1-1.9c-0.1-0.5-0.2-1-0.4-1.3c-0.2-0.4-0.5-0.6-0.8-0.8
				c-0.4-0.2-0.8-0.3-1.3-0.3c-0.2,0-0.5,0-0.7,0c-0.3,0-0.5,0-0.7,0.1c-0.2,0-0.5,0.1-0.7,0.1c-0.2,0-0.3,0.1-0.4,0.1v10.7h-2.3
				V25.4z"/>
		</g>
		<g>
			<path class="st0" d="M245,24.9h-0.7v-0.4h2v0.4h-0.7v1.9H245V24.9z"/>
			<path class="st0" d="M246.6,24.4h0.7l0.5,1l0.5-1h0.7v2.3h-0.5v-1.6h0l-0.5,1.1h-0.4l-0.5-1v1.6h-0.5V24.4z"/>
		</g>
	</g>
	<path class="st1" d="M20.7,6L0.3,17.7V33c0,4.1,1.8,8,4.9,10.7V33.2c0-0.1,0-0.1,0-0.2V20.5l4-2.3v22.4c0,0,0,0,0,0v5.7L20.7,53
		l13.2-7.6C38.3,42.8,41,38.1,41,33V17.7L20.7,6z M20.7,11.6l11.5,6.6l-11.5,6.4L9.3,18.2L20.7,11.6z M36.2,33
		c0,3.4-1.8,6.5-4.8,8.2l-10.8,6.2L14,43.5V26.4l6.6,3.8l6.8-3.8v6.2c0,0.8-0.4,1.6-1.1,2l-5.5,3.1v5.6l8.9-5.1
		c1.6-0.9,2.6-2.6,2.6-4.5V18.3l4,2.3V33z"/>
</g>
</svg>
